<?xml version="1.0" encoding="utf-8"?>
<!-- Generator: Adobe Illustrator 24.3.0, SVG Export Plug-In . SVG Version: 6.00 Build 0)  -->
<svg version="1.1" id="图层_1" xmlns="http://www.w3.org/2000/svg" xmlns:xlink="http://www.w3.org/1999/xlink" x="0px" y="0px"
	 viewBox="0 0 375 812" style="enable-background:new 0 0 375 812;" xml:space="preserve">
<style type="text/css">
	.st0{clip-path:url(#SVGID_2_);}
	.st1{fill:#F8F8F8;}
	.st2{fill:url(#SVGID_3_);}
	.st3{fill:#FBEBE1;}
	.st4{fill:none;stroke:#FF5732;stroke-linecap:round;stroke-linejoin:round;}
	.st5{fill:none;stroke:#FFC632;stroke-linecap:round;stroke-linejoin:round;}
	.st6{fill:url(#SVGID_4_);}
	.st7{fill:url(#SVGID_5_);}
	.st8{fill:url(#SVGID_6_);}
	.st9{fill:#FFFFFF;filter:url(#Adobe_OpacityMaskFilter);}
	.st10{mask:url(#i_6_);fill:none;stroke:#E75B4E;stroke-width:8;stroke-linecap:round;}
	.st11{fill:#FFFFFF;filter:url(#Adobe_OpacityMaskFilter_1_);}
	.st12{mask:url(#i_5_);fill:none;stroke:#E75B4E;stroke-width:8;stroke-linecap:round;}
	.st13{fill:#FFFFFF;filter:url(#Adobe_OpacityMaskFilter_2_);}
	.st14{mask:url(#i_4_);fill:none;stroke:#E75B4E;stroke-width:8;stroke-linecap:round;}
	.st15{fill:url(#SVGID_7_);}
	.st16{fill:url(#SVGID_8_);}
	.st17{fill:url(#SVGID_9_);}
	.st18{fill:#FFFFFF;filter:url(#Adobe_OpacityMaskFilter_3_);}
	.st19{mask:url(#j_6_);fill:none;stroke:#E75B4E;stroke-width:8;stroke-linecap:round;}
	.st20{fill:#FFFFFF;filter:url(#Adobe_OpacityMaskFilter_4_);}
	.st21{mask:url(#j_5_);fill:none;stroke:#E75B4E;stroke-width:8;stroke-linecap:round;}
	.st22{fill:#FFFFFF;filter:url(#Adobe_OpacityMaskFilter_5_);}
	.st23{mask:url(#j_4_);fill:none;stroke:#E75B4E;stroke-width:8;stroke-linecap:round;}
	.st24{fill-rule:evenodd;clip-rule:evenodd;fill:url(#SVGID_10_);}
	.st25{fill-rule:evenodd;clip-rule:evenodd;fill:url(#SVGID_11_);}
	.st26{fill:#FFFFFF;}
</style>
<g>
	<defs>
		<rect id="SVGID_1_" width="375" height="812"/>
	</defs>
	<clipPath id="SVGID_2_">
		<use xlink:href="#SVGID_1_"  style="overflow:visible;"/>
	</clipPath>
	<g class="st0">
		<path class="st1" d="M0,0h375v812H0V0z"/>
		
			<linearGradient id="SVGID_3_" gradientUnits="userSpaceOnUse" x1="187.5" y1="811.8898" x2="187.5" y2="-0.1102" gradientTransform="matrix(1 0 0 -1 0 811.8898)">
			<stop  offset="0" style="stop-color:#FF544F"/>
			<stop  offset="1" style="stop-color:#FAED8C"/>
		</linearGradient>
		<path class="st2" d="M0,0h375v812H0V0z"/>
		<path class="st3" d="M94,709c-18-40-71.3-65.3-93.5-68v174H377V306c0,0-24.5,41-24.5,100c-34.5,25-31.5,82-23,96.5
			C304,521,306,555,340.5,593c-69,75.5-33.5,111-44.5,136.5c-8.8,20.4-40.2-18.2-54.8-40C190,625,155.9,608.4,174,709
			C153.8,675.3,97,674,94,709z"/>
		<g>
			<path class="st4" d="M247.8,396.5c0.5,0.6,0.9,1.2,1.4,1.8"/>
			<path class="st4" d="M251.5,397.2c0.2,0.5,0.3,0.9,0.3,1.3"/>
			<path class="st4" d="M255.8,396c0,0.3,0.1,0.6,0.1,0.9"/>
			<path class="st4" d="M254.5,399.3c0,0.2,0,0.8,0,0.8"/>
			<path class="st4" d="M259.8,397c0,0.3-0.1,1.4-0.1,1"/>
			<path class="st4" d="M259.8,401c-0.1,0.3-0.2,0.6-0.3,0.9"/>
			<path class="st4" d="M264.6,398.2c-0.1,0.3-0.3,0.6-0.3,0.9"/>
			<path class="st4" d="M263.3,401.1c-0.1,0.3-0.2,0.7-0.3,1"/>
			<path class="st4" d="M266.3,404c-0.2,0.3-0.5,0.8-0.8,0.9"/>
			<path class="st4" d="M268.1,400.8c-0.1,0.2-0.3,0.5-0.4,0.7"/>
			<path class="st4" d="M270.6,406.7c-0.2,0-1.2,0.4-1.3,0.1"/>
			<path class="st4" d="M267.3,409c-0.3,0.1-1,0.3-1.3,0.1"/>
			<path class="st4" d="M262.1,405c-0.2,0.2-0.5,0.4-0.5,0.7"/>
			<path class="st4" d="M261.9,407.3c-0.2,0.3-0.5,0.5-0.7,0.8"/>
			<path class="st4" d="M258,406.8c0,0.2-0.1,0.4-0.1,0.6"/>
			<path class="st4" d="M254.9,402.3c0.1,0.3,0.1,0.6,0.2,0.9"/>
			<path class="st4" d="M248.4,401.2c0.1,0.4,0.2,0.7,0.3,1.1"/>
			<path class="st4" d="M245.4,399.2c0.2,0.2,0.4,0.4,0.5,0.6"/>
			<path class="st4" d="M244.4,402.1c0.2,0.2,0.4,0.5,0.6,0.7"/>
			<path class="st4" d="M241.9,402.9c0,0.1,0.7,0.8,0.7,0.7"/>
			<path class="st4" d="M239.9,407.3c0.1,0.1,1.2,0.4,1,0.3"/>
			<path class="st4" d="M243.9,406.6c0.4,0.4,0.5,0.4,1,0.6c0.3,0.1,0.4,0.1,0.1,0.1"/>
			<path class="st4" d="M249.8,405.3c0.4,0.3,0.8,0.6,1.2,0.8"/>
			<path class="st4" d="M252.7,404.4c0,0.3,0.1,0.5,0.2,0.8"/>
			<path class="st4" d="M253.1,407.6c0.2,0.3,0.5,0.6,0.7,0.9"/>
			<path class="st4" d="M247.5,409.9c0.5,0,0.9,0,1.3,0.1"/>
			<path class="st4" d="M249.5,411.5c0.5-0.1,1.1-0.2,1.6-0.2"/>
			<path class="st4" d="M244.4,410.5c0.3,0,1.6,0,0.6,0"/>
			<path class="st4" d="M239.5,412.3h1.1"/>
			<path class="st4" d="M242.6,413.7c0.4,0,0.7-0.1,1.1-0.1"/>
			<path class="st4" d="M247,413c0.1,0,1.5,0.1,0.9,0.1"/>
			<path class="st4" d="M240.7,417.9c0.1-0.1,1.1-0.7,0.7-0.4"/>
			<path class="st4" d="M244.4,418.2c0.3-0.2,0.5-0.4,0.8-0.4c0.1,0,0.6-0.1,0.3,0"/>
			<path class="st4" d="M246.3,416.6c0.4-0.2,0.9-0.4,1.3-0.6"/>
			<path class="st4" d="M249.7,414.8c0.3-0.1,0.7-0.2,1-0.2"/>
			<path class="st4" d="M251.8,414c0.4,0,0.8-0.1,1.2-0.1"/>
			<path class="st4" d="M251.5,416.5c0.2-0.2,0.5-0.3,0.6-0.5"/>
			<path class="st4" d="M254.3,414.4c0.2,0,0.6,0,0.7-0.2"/>
			<path class="st4" d="M253.4,410.9c0.1,0.3,0.1,0.6,0.3,0.8"/>
			<path class="st4" d="M256.1,409.4c-0.1,0.2-0.2,0.4-0.3,0.6"/>
			<path class="st4" d="M259.5,410.7c-0.3,0.3-0.4,0.5-0.8,0.6c-0.2,0-0.3,0.1-0.4,0.2"/>
			<path class="st4" d="M263.8,413.2c0.2,0,1.3-0.3,1.4,0"/>
			<path class="st4" d="M267.4,413.4c0.6-0.1,1.1-0.1,1.7-0.1"/>
			<path class="st4" d="M270.6,411.3c0.4-0.1,0.7-0.1,1.1-0.1"/>
			<path class="st4" d="M270.2,415.9h1.9"/>
			<path class="st4" d="M265.6,418.3c0.5,0.1,1.1,0.6,1.6,0.6"/>
			<path class="st4" d="M269.9,420.7c0.4,0.1,0.9,0.3,1.3,0.4"/>
			<path class="st4" d="M266.2,422.1c0.3,0.1,0.6,0.3,0.8,0.4"/>
			<path class="st4" d="M266.1,425.1c0.3,0.2,0.5,0.4,0.8,0.5"/>
			<path class="st4" d="M261.7,421.4c0.2,0.2,0.3,0.6,0.6,0.7"/>
			<path class="st4" d="M261,417.2c0.5,0.6,0.7,1,1.4,1.2"/>
			<path class="st4" d="M260.1,414.3h0.9"/>
			<path class="st4" d="M256.5,416.1c0.3-0.1,0.7-0.1,1-0.1"/>
			<path class="st4" d="M254.4,416.7c0.3-0.1,0.5-0.1,0.8-0.2"/>
			<path class="st4" d="M253.9,418.9c-0.1,0.4-0.2,0.8-0.3,1.1"/>
			<path class="st4" d="M256.3,418.5c0.1,0.2,0.2,0.5,0.4,0.6"/>
			<path class="st4" d="M257.5,420.6v1.1"/>
			<path class="st4" d="M257,424.2c0.1,0.3,0.1,0.6,0.1,0.9"/>
			<path class="st4" d="M260.1,425.2c0,0.1,0.5,1,0.4,1"/>
			<path class="st4" d="M263.6,428.1c0.2,0.2,0.3,0.4,0.5,0.6"/>
			<path class="st4" d="M258.2,428.7c0.1,0.2,0.1,0.6,0.3,0.7"/>
			<path class="st4" d="M255.3,429c-0.1,0.3-0.1,0.5-0.1,0.8"/>
			<path class="st4" d="M253.7,426.2c-0.1,0.2-0.1,0.9-0.3,1"/>
			<path class="st4" d="M252,428.7c0,0.4-0.1,0.7-0.1,1"/>
			<path class="st4" d="M250.2,423.6c0,0.2-0.1,0.5-0.1,0.7"/>
			<path class="st4" d="M254.2,422.2c-0.1,0.3-0.2,0.6-0.2,0.9"/>
			<path class="st4" d="M250,420.3c-0.2,0.3-0.5,0.6-0.5,1"/>
			<path class="st4" d="M247.4,421.6c-0.3,0.3-0.6,0.7-0.9,1"/>
			<path class="st4" d="M245.4,425.3c-0.1,0.3-0.2,0.9-0.5,0.7"/>
			<path class="st4" d="M242.5,421.4c-0.2,0.3-0.3,0.6-0.5,0.8"/>
			<path class="st5" d="M298,343.9c0.7,1,1.5,2,2.2,3"/>
			<path class="st5" d="M304,344.9c0.3,0.8,0.4,1.4,0.4,2.1"/>
			<path class="st5" d="M311,343c0.1,0.5,0.2,1,0.2,1.5"/>
			<path class="st5" d="M308.9,348.4c0,0.3,0,1.4,0,1.3"/>
			<path class="st5" d="M317.6,344.6c0,0.6-0.2,2.2-0.2,1.6"/>
			<path class="st5" d="M317.6,351.1c-0.1,0.5-0.3,1-0.5,1.5"/>
			<path class="st5" d="M325.3,346.6c-0.2,0.5-0.5,1-0.5,1.5"/>
			<path class="st5" d="M323.2,351.2c-0.2,0.5-0.4,1.1-0.5,1.6"/>
			<path class="st5" d="M328.1,356c-0.3,0.5-0.8,1.2-1.3,1.5"/>
			<path class="st5" d="M331.1,350.7c-0.2,0.4-0.4,0.8-0.7,1.2"/>
			<path class="st5" d="M335.2,360.5c-0.3,0.1-1.9,0.6-2.1,0.2"/>
			<path class="st5" d="M329.8,364.2c-0.5,0.1-1.6,0.4-2.1,0.2"/>
			<path class="st5" d="M321.4,357.7c-0.3,0.3-0.8,0.7-0.8,1.2"/>
			<path class="st5" d="M321.1,361.4c-0.4,0.5-0.8,0.8-1.2,1.3"/>
			<path class="st5" d="M314.6,360.6c-0.1,0.3-0.1,0.7-0.2,1"/>
			<path class="st5" d="M309.5,353.2c0.1,0.5,0.1,1,0.3,1.5"/>
			<path class="st5" d="M299,351.4c0.1,0.6,0.4,1.2,0.5,1.8"/>
			<path class="st5" d="M294.1,348.3c0.3,0.3,0.6,0.6,0.8,1"/>
			<path class="st5" d="M292.4,352.9c0.3,0.4,0.6,0.8,1,1.2"/>
			<path class="st5" d="M288.5,354.2c0.1,0.1,1.2,1.3,1.2,1.2"/>
			<path class="st5" d="M285.2,361.4c0.2,0.1,1.9,0.6,1.6,0.5"/>
			<path class="st5" d="M291.7,360.3c0.7,0.7,0.9,0.7,1.7,1c0.4,0.2,0.7,0.2,0.1,0.2"/>
			<path class="st5" d="M301.3,358.1c0.6,0.5,1.2,1,2,1.3"/>
			<path class="st5" d="M306.1,356.7c0,0.5,0.1,0.9,0.3,1.3"/>
			<path class="st5" d="M306.7,361.9c0.4,0.5,0.9,1,1.2,1.5"/>
			<path class="st5" d="M297.5,365.6c0.8,0,1.4,0,2.1,0.2"/>
			<path class="st5" d="M300.8,368.2c0.9-0.1,1.8-0.3,2.6-0.3"/>
			<path class="st5" d="M292.4,366.5c0.5,0,2.7,0,1,0"/>
			<path class="st5" d="M284.5,369.5h1.8"/>
			<path class="st5" d="M289.6,371.8c0.6,0,1.2-0.2,1.8-0.2"/>
			<path class="st5" d="M296.7,370.7c0.2,0,2.5,0.2,1.5,0.2"/>
			<path class="st5" d="M286.5,378.7c0.1-0.1,1.8-1.1,1.2-0.7"/>
			<path class="st5" d="M292.4,379.2c0.4-0.3,0.8-0.6,1.3-0.7c0.2-0.1,1-0.1,0.5,0.1"/>
			<path class="st5" d="M295.5,376.6c0.7-0.3,1.4-0.6,2.1-1"/>
			<path class="st5" d="M301.1,373.6c0.6-0.1,1.1-0.3,1.6-0.3"/>
			<path class="st5" d="M304.6,372.3c0.7,0,1.3-0.2,2-0.2"/>
			<path class="st5" d="M304.1,376.4c0.4-0.3,0.7-0.4,1-0.8"/>
			<path class="st5" d="M308.5,373c0.3-0.1,1,0,1.2-0.3"/>
			<path class="st5" d="M307.1,367.2c0.1,0.5,0.2,0.9,0.5,1.3"/>
			<path class="st5" d="M311.5,364.9c-0.1,0.3-0.3,0.7-0.5,1"/>
			<path class="st5" d="M317.1,366.9c-0.4,0.5-0.6,0.9-1.3,1c-0.3,0.1-0.5,0.1-0.7,0.3"/>
			<path class="st5" d="M324,371c0.4,0,2.1-0.5,2.3,0"/>
			<path class="st5" d="M329.9,371.3c0.9-0.1,1.9-0.2,2.8-0.2"/>
			<path class="st5" d="M335.2,367.9c0.6-0.1,1.2-0.2,1.8-0.2"/>
			<path class="st5" d="M334.6,375.4h3.1"/>
			<path class="st5" d="M327,379.4c0.7,0.2,1.9,1,2.6,1"/>
			<path class="st5" d="M334.1,383.2c0.7,0.2,1.4,0.5,2.1,0.7"/>
			<path class="st5" d="M328,385.5c0.4,0.2,0.9,0.5,1.3,0.7"/>
			<path class="st5" d="M327.8,390.4c0.4,0.3,0.9,0.7,1.3,0.8"/>
			<path class="st5" d="M320.7,384.3c0.3,0.4,0.5,1,1,1.2"/>
			<path class="st5" d="M319.6,377.6c0.8,1,1.2,1.6,2.3,2"/>
			<path class="st5" d="M318.1,372.8h1.5"/>
			<path class="st5" d="M312.2,375.8c0.6-0.1,1.1-0.2,1.6-0.2"/>
			<path class="st5" d="M308.7,376.8c0.5-0.1,0.9-0.2,1.3-0.3"/>
			<path class="st5" d="M307.9,380.4c-0.1,0.6-0.3,1.2-0.5,1.8"/>
			<path class="st5" d="M311.8,379.7c0.2,0.3,0.3,0.8,0.7,1"/>
			<path class="st5" d="M313.8,383v1.8"/>
			<path class="st5" d="M313,388.9c0.1,0.5,0.2,1,0.2,1.5"/>
			<path class="st5" d="M318.1,390.6c0.1,0.2,0.8,1.6,0.7,1.6"/>
			<path class="st5" d="M323.7,395.4c0.3,0.3,0.5,0.7,0.8,1"/>
			<path class="st5" d="M315,396.2c0.1,0.3,0.2,1,0.5,1.2"/>
			<path class="st5" d="M310.2,396.7c-0.1,0.4-0.2,0.9-0.2,1.3"/>
			<path class="st5" d="M307.6,392.2c-0.1,0.3-0.2,1.5-0.5,1.6"/>
			<path class="st5" d="M304.9,396.2c0,0.6-0.2,1.1-0.2,1.6"/>
			<path class="st5" d="M302,388c-0.1,0.4-0.2,0.8-0.2,1.2"/>
			<path class="st5" d="M308.4,385.6c-0.1,0.5-0.3,1-0.3,1.5"/>
			<path class="st5" d="M301.6,382.5c-0.3,0.5-0.8,1.1-0.8,1.6"/>
			<path class="st5" d="M297.3,384.7c-0.5,0.5-1,1.1-1.5,1.6"/>
			<path class="st5" d="M294.1,390.8c-0.2,0.5-0.3,1.4-0.8,1.2"/>
			<path class="st5" d="M289.4,384.3c-0.3,0.4-0.5,0.9-0.8,1.3"/>
		</g>
		<g>
			
				<radialGradient id="SVGID_4_" cx="-108.6812" cy="827.0114" r="0.821" gradientTransform="matrix(128.5805 40.9999 133.7322 -419.3997 -96417.3672 351422.3438)" gradientUnits="userSpaceOnUse">
				<stop  offset="0" style="stop-color:#FFE9B0"/>
				<stop  offset="1" style="stop-color:#FFB979"/>
			</radialGradient>
			<path class="st6" d="M214.8,150.7h-8.2V146l1.3,0.9h3.6l2.9-4.6h-7.8v-3.5h1v-11.7l-0.6-1.3h16.3l1-2.5h-12.6l-0.6,1.8h-4.6
				l2.3-5.9l-0.8-1.1h5.6l-0.6,1.5h17.1l-2.3,6.2h2.5v13h1v3.5h-6.9l2,4.6h4.9v4.8c-0.1-0.4-0.3-0.7-0.6-0.8
				c-0.3-0.1-0.5-0.2-0.8-0.2h-7.2l-3.3-7.5L214.8,150.7z M205,128c-0.1-0.5-0.3-0.8-0.6-0.9c-0.3-0.1-0.5-0.2-0.8-0.2h-1.1v9.5
				l1.4-0.4l1.1-1.5v6.4l-2.5,0.7v9.1h-6.2l1-1.5V143l-2.5,0.7l-1.3,1.2V139l3.7-1v-11h-3.7v-4.7l1.2,0.9h2.5v-3.8l-0.7-1h5.9v4.9
				h2.5V128z M225.2,129.7h-3.8v9.2h3.8V129.7z M216.2,129.7h-3.5v9.2h3.5V129.7z"/>
			
				<radialGradient id="SVGID_5_" cx="-108.6812" cy="827.0114" r="0.821" gradientTransform="matrix(128.5805 40.9999 133.7322 -419.3997 -96417.3672 351422.3438)" gradientUnits="userSpaceOnUse">
				<stop  offset="0" style="stop-color:#FFE9B0"/>
				<stop  offset="1" style="stop-color:#FFB979"/>
			</radialGradient>
			<path class="st7" d="M270.6,123.4c-0.1-0.5-0.3-0.8-0.5-0.9c-0.2-0.1-0.4-0.2-0.7-0.2l-8.7,0.5l0,5.1h10.9v4.6
				c-0.2-0.4-0.3-0.7-0.6-0.9c-0.2-0.1-0.4-0.2-0.6-0.2h-1.5l0,19.7h-5.1v-19.7h-3.1v19.7h-6.2l1.1-1.5v-31l1.2,0.9l13.8-0.9V123.4z
				 M245.9,125.8h5.9l-0.7,1l-0.9,2.2h3.8v4.6c-0.1-0.4-0.3-0.7-0.5-0.9c-0.2-0.1-0.4-0.2-0.7-0.2l-6.4,0.1v2.2h7v4.7
				c-0.1-0.5-0.3-0.8-0.5-0.9c-0.2-0.1-0.4-0.2-0.6-0.2h-5.8l0,12.8h-6.2l1-1.5l0-11.3h-6.9V134l1.2,0.9h5.6l0-2.2h-7.3v-4.5
				l1.2,0.9h2l-0.8-2.2l-0.8-1h5.9l1.2,3.2h2.1L245.9,125.8z M253.4,125.1c-0.1-0.4-0.3-0.7-0.5-0.8c-0.2-0.2-0.4-0.3-0.7-0.3h-18.4
				v-4.4l1.3,1h6v-0.9l-0.7-1h5.9v2h7.1V125.1z M238,150.6h-4l1.5-8.8l-0.8-1.2h5.4L238,150.6z M247.4,140.7h5.2l-0.9,1.2l1.3,8.7
				H249L247.4,140.7z"/>
			
				<radialGradient id="SVGID_6_" cx="-108.6812" cy="827.0114" r="0.821" gradientTransform="matrix(128.5805 40.9999 133.7322 -419.3997 -96417.3672 351422.3438)" gradientUnits="userSpaceOnUse">
				<stop  offset="0" style="stop-color:#FFE9B0"/>
				<stop  offset="1" style="stop-color:#FFB979"/>
			</radialGradient>
			<path class="st8" d="M311.8,124.5c-0.1-0.4-0.3-0.7-0.6-0.9c-0.3-0.1-0.6-0.2-0.8-0.2h-4.3l-1.2,2.8h6.9v16.1h-3.4V130h-9v11.7
				l2.9-7.7l-0.7-1h5.9l-7,18.3h-4.7l3.3-8.9h-3.2v-15l-0.7-1.1h5.2l1.2-2.8h-5.7v-4.7l1.3,0.9h14.8V124.5z M287.5,126.4h6.1l-1,1
				l-0.6,2.4h1.9v4.3c-0.1-0.5-0.3-0.8-0.6-0.9c-0.3-0.1-0.6-0.2-0.8-0.2H279v18.1h-4.8l1.2-2.5v-19.8l1.3,0.9h0.6l-0.6-2.4l-1-1
				h6.1l0.8,3.4h4.1L287.5,126.4z M294.8,125.9c-0.1-0.5-0.4-0.8-0.7-0.9c-0.3-0.1-0.6-0.2-0.8-0.2h-19.2v-4.2l1.3,0.9h6.5v-1.9
				l-0.7-1h6.1v2.9h7.5V125.9z M293.7,149.6c-0.1-0.4-0.3-0.7-0.6-0.8c-0.3-0.1-0.6-0.1-0.8-0.1l-12.4,1.5V146l1.3,0.8l12.5-1.5
				V149.6z M293.7,138.9c-0.1-0.4-0.3-0.7-0.6-0.8c-0.3-0.1-0.6-0.1-0.8-0.1l-12.4,1.5v-4.2l1.3,0.8l12.5-1.5V138.9z M293.7,144.2
				c-0.1-0.4-0.3-0.7-0.6-0.8c-0.3-0.1-0.6-0.2-0.8-0.2l-12.4,1.5v-4.1l1.3,0.7l12.5-1.5V144.2z M307.1,151.1l-3.6-7.4h5.9l-0.7,1.1
				l3.1,6.3H307.1z"/>
			<defs>
				<filter id="Adobe_OpacityMaskFilter" filterUnits="userSpaceOnUse" x="188.8" y="114.1" width="47.1" height="40.7">
					<feColorMatrix  type="matrix" values="1 0 0 0 0  0 1 0 0 0  0 0 1 0 0  0 0 0 1 0"/>
				</filter>
			</defs>
			<mask maskUnits="userSpaceOnUse" x="188.8" y="114.1" width="47.1" height="40.7" id="i_6_">
				<path class="st9" d="M189.5,111.5h128.1V155H189.5V111.5z"/>
				<path d="M214.8,150.7h-8.2V146l1.3,0.9h3.6l2.9-4.6h-7.8v-3.5h1v-11.7l-0.6-1.3h16.3l1-2.5h-12.6l-0.6,1.8h-4.6l2.3-5.9
					l-0.8-1.1h5.6l-0.6,1.5h17.1l-2.3,6.2h2.5v13h1v3.5h-6.9l2,4.6h4.9v4.8c-0.1-0.4-0.3-0.7-0.6-0.8c-0.3-0.1-0.5-0.2-0.8-0.2h-7.2
					l-3.3-7.5L214.8,150.7z M205,128c-0.1-0.5-0.3-0.8-0.6-0.9c-0.3-0.1-0.5-0.2-0.8-0.2h-1.1v9.5l1.4-0.4l1.1-1.5v6.4l-2.5,0.7v9.1
					h-6.2l1-1.5V143l-2.5,0.7l-1.3,1.2V139l3.7-1v-11h-3.7v-4.7l1.2,0.9h2.5v-3.8l-0.7-1h5.9v4.9h2.5V128z M225.2,129.7h-3.8v9.2
					h3.8V129.7z M216.2,129.7h-3.5v9.2h3.5V129.7z"/>
				<path d="M270.6,123.4c-0.1-0.5-0.3-0.8-0.5-0.9c-0.2-0.1-0.4-0.2-0.7-0.2l-8.7,0.5l0,5.1h10.9v4.6c-0.2-0.4-0.3-0.7-0.6-0.9
					c-0.2-0.1-0.4-0.2-0.6-0.2h-1.5l0,19.7h-5.1v-19.7h-3.1v19.7h-6.2l1.1-1.5v-31l1.2,0.9l13.8-0.9V123.4z M245.9,125.8h5.9l-0.7,1
					l-0.9,2.2h3.8v4.6c-0.1-0.4-0.3-0.7-0.5-0.9c-0.2-0.1-0.4-0.2-0.7-0.2l-6.4,0.1v2.2h7v4.7c-0.1-0.5-0.3-0.8-0.5-0.9
					c-0.2-0.1-0.4-0.2-0.6-0.2h-5.8l0,12.8h-6.2l1-1.5l0-11.3h-6.9V134l1.2,0.9h5.6l0-2.2h-7.3v-4.5l1.2,0.9h2l-0.8-2.2l-0.8-1h5.9
					l1.2,3.2h2.1L245.9,125.8z M253.4,125.1c-0.1-0.4-0.3-0.7-0.5-0.8c-0.2-0.2-0.4-0.3-0.7-0.3h-18.4v-4.4l1.3,1h6v-0.9l-0.7-1h5.9
					v2h7.1V125.1z M238,150.6h-4l1.5-8.8l-0.8-1.2h5.4L238,150.6z M247.4,140.7h5.2l-0.9,1.2l1.3,8.7H249L247.4,140.7z"/>
				<path d="M311.8,124.5c-0.1-0.4-0.3-0.7-0.6-0.9c-0.3-0.1-0.6-0.2-0.8-0.2h-4.3l-1.2,2.8h6.9v16.1h-3.4V130h-9v11.7l2.9-7.7
					l-0.7-1h5.9l-7,18.3h-4.7l3.3-8.9h-3.2v-15l-0.7-1.1h5.2l1.2-2.8h-5.7v-4.7l1.3,0.9h14.8V124.5z M287.5,126.4h6.1l-1,1l-0.6,2.4
					h1.9v4.3c-0.1-0.5-0.3-0.8-0.6-0.9c-0.3-0.1-0.6-0.2-0.8-0.2H279v18.1h-4.8l1.2-2.5v-19.8l1.3,0.9h0.6l-0.6-2.4l-1-1h6.1
					l0.8,3.4h4.1L287.5,126.4z M294.8,125.9c-0.1-0.5-0.4-0.8-0.7-0.9c-0.3-0.1-0.6-0.2-0.8-0.2h-19.2v-4.2l1.3,0.9h6.5v-1.9l-0.7-1
					h6.1v2.9h7.5V125.9z M293.7,149.6c-0.1-0.4-0.3-0.7-0.6-0.8c-0.3-0.1-0.6-0.1-0.8-0.1l-12.4,1.5V146l1.3,0.8l12.5-1.5V149.6z
					 M293.7,138.9c-0.1-0.4-0.3-0.7-0.6-0.8c-0.3-0.1-0.6-0.1-0.8-0.1l-12.4,1.5v-4.2l1.3,0.8l12.5-1.5V138.9z M293.7,144.2
					c-0.1-0.4-0.3-0.7-0.6-0.8c-0.3-0.1-0.6-0.2-0.8-0.2l-12.4,1.5v-4.1l1.3,0.7l12.5-1.5V144.2z M307.1,151.1l-3.6-7.4h5.9
					l-0.7,1.1l3.1,6.3H307.1z"/>
			</mask>
			<path class="st10" d="M214.8,150.7h-8.2V146l1.3,0.9h3.6l2.9-4.6h-7.8v-3.5h1v-11.7l-0.6-1.3h16.3l1-2.5h-12.6l-0.6,1.8h-4.6
				l2.3-5.9l-0.8-1.1h5.6l-0.6,1.5h17.1l-2.3,6.2h2.5v13h1v3.5h-6.9l2,4.6h4.9v4.8c-0.1-0.4-0.3-0.7-0.6-0.8
				c-0.3-0.1-0.5-0.2-0.8-0.2h-7.2l-3.3-7.5L214.8,150.7z M205,128c-0.1-0.5-0.3-0.8-0.6-0.9c-0.3-0.1-0.5-0.2-0.8-0.2h-1.1v9.5
				l1.4-0.4l1.1-1.5v6.4l-2.5,0.7v9.1h-6.2l1-1.5V143l-2.5,0.7l-1.3,1.2V139l3.7-1v-11h-3.7v-4.7l1.2,0.9h2.5v-3.8l-0.7-1h5.9v4.9
				h2.5V128z M225.2,129.7h-3.8v9.2h3.8V129.7z M216.2,129.7h-3.5v9.2h3.5V129.7z"/>
			<defs>
				<filter id="Adobe_OpacityMaskFilter_1_" filterUnits="userSpaceOnUse" x="227.3" y="111" width="48.3" height="44.2">
					<feColorMatrix  type="matrix" values="1 0 0 0 0  0 1 0 0 0  0 0 1 0 0  0 0 0 1 0"/>
				</filter>
			</defs>
			<mask maskUnits="userSpaceOnUse" x="227.3" y="111" width="48.3" height="44.2" id="i_5_">
				<path class="st11" d="M189.5,111.5h128.1V155H189.5V111.5z"/>
				<path d="M214.8,150.7h-8.2V146l1.3,0.9h3.6l2.9-4.6h-7.8v-3.5h1v-11.7l-0.6-1.3h16.3l1-2.5h-12.6l-0.6,1.8h-4.6l2.3-5.9
					l-0.8-1.1h5.6l-0.6,1.5h17.1l-2.3,6.2h2.5v13h1v3.5h-6.9l2,4.6h4.9v4.8c-0.1-0.4-0.3-0.7-0.6-0.8c-0.3-0.1-0.5-0.2-0.8-0.2h-7.2
					l-3.3-7.5L214.8,150.7z M205,128c-0.1-0.5-0.3-0.8-0.6-0.9c-0.3-0.1-0.5-0.2-0.8-0.2h-1.1v9.5l1.4-0.4l1.1-1.5v6.4l-2.5,0.7v9.1
					h-6.2l1-1.5V143l-2.5,0.7l-1.3,1.2V139l3.7-1v-11h-3.7v-4.7l1.2,0.9h2.5v-3.8l-0.7-1h5.9v4.9h2.5V128z M225.2,129.7h-3.8v9.2
					h3.8V129.7z M216.2,129.7h-3.5v9.2h3.5V129.7z"/>
				<path d="M270.6,123.4c-0.1-0.5-0.3-0.8-0.5-0.9c-0.2-0.1-0.4-0.2-0.7-0.2l-8.7,0.5l0,5.1h10.9v4.6c-0.2-0.4-0.3-0.7-0.6-0.9
					c-0.2-0.1-0.4-0.2-0.6-0.2h-1.5l0,19.7h-5.1v-19.7h-3.1v19.7h-6.2l1.1-1.5v-31l1.2,0.9l13.8-0.9V123.4z M245.9,125.8h5.9l-0.7,1
					l-0.9,2.2h3.8v4.6c-0.1-0.4-0.3-0.7-0.5-0.9c-0.2-0.1-0.4-0.2-0.7-0.2l-6.4,0.1v2.2h7v4.7c-0.1-0.5-0.3-0.8-0.5-0.9
					c-0.2-0.1-0.4-0.2-0.6-0.2h-5.8l0,12.8h-6.2l1-1.5l0-11.3h-6.9V134l1.2,0.9h5.6l0-2.2h-7.3v-4.5l1.2,0.9h2l-0.8-2.2l-0.8-1h5.9
					l1.2,3.2h2.1L245.9,125.8z M253.4,125.1c-0.1-0.4-0.3-0.7-0.5-0.8c-0.2-0.2-0.4-0.3-0.7-0.3h-18.4v-4.4l1.3,1h6v-0.9l-0.7-1h5.9
					v2h7.1V125.1z M238,150.6h-4l1.5-8.8l-0.8-1.2h5.4L238,150.6z M247.4,140.7h5.2l-0.9,1.2l1.3,8.7H249L247.4,140.7z"/>
				<path d="M311.8,124.5c-0.1-0.4-0.3-0.7-0.6-0.9c-0.3-0.1-0.6-0.2-0.8-0.2h-4.3l-1.2,2.8h6.9v16.1h-3.4V130h-9v11.7l2.9-7.7
					l-0.7-1h5.9l-7,18.3h-4.7l3.3-8.9h-3.2v-15l-0.7-1.1h5.2l1.2-2.8h-5.7v-4.7l1.3,0.9h14.8V124.5z M287.5,126.4h6.1l-1,1l-0.6,2.4
					h1.9v4.3c-0.1-0.5-0.3-0.8-0.6-0.9c-0.3-0.1-0.6-0.2-0.8-0.2H279v18.1h-4.8l1.2-2.5v-19.8l1.3,0.9h0.6l-0.6-2.4l-1-1h6.1
					l0.8,3.4h4.1L287.5,126.4z M294.8,125.9c-0.1-0.5-0.4-0.8-0.7-0.9c-0.3-0.1-0.6-0.2-0.8-0.2h-19.2v-4.2l1.3,0.9h6.5v-1.9l-0.7-1
					h6.1v2.9h7.5V125.9z M293.7,149.6c-0.1-0.4-0.3-0.7-0.6-0.8c-0.3-0.1-0.6-0.1-0.8-0.1l-12.4,1.5V146l1.3,0.8l12.5-1.5V149.6z
					 M293.7,138.9c-0.1-0.4-0.3-0.7-0.6-0.8c-0.3-0.1-0.6-0.1-0.8-0.1l-12.4,1.5v-4.2l1.3,0.8l12.5-1.5V138.9z M293.7,144.2
					c-0.1-0.4-0.3-0.7-0.6-0.8c-0.3-0.1-0.6-0.2-0.8-0.2l-12.4,1.5v-4.1l1.3,0.7l12.5-1.5V144.2z M307.1,151.1l-3.6-7.4h5.9
					l-0.7,1.1l3.1,6.3H307.1z"/>
			</mask>
			<path class="st12" d="M270.6,123.4c-0.1-0.5-0.3-0.8-0.5-0.9c-0.2-0.1-0.4-0.2-0.7-0.2l-8.7,0.5l0,5.1h10.9v4.6
				c-0.2-0.4-0.3-0.7-0.6-0.9c-0.2-0.1-0.4-0.2-0.6-0.2h-1.5l0,19.7h-5.1v-19.7h-3.1v19.7h-6.2l1.1-1.5v-31l1.2,0.9l13.8-0.9V123.4z
				 M245.9,125.8h5.9l-0.7,1l-0.9,2.2h3.8v4.6c-0.1-0.4-0.3-0.7-0.5-0.9c-0.2-0.1-0.4-0.2-0.7-0.2l-6.4,0.1v2.2h7v4.7
				c-0.1-0.5-0.3-0.8-0.5-0.9c-0.2-0.1-0.4-0.2-0.6-0.2h-5.8l0,12.8h-6.2l1-1.5l0-11.3h-6.9V134l1.2,0.9h5.6l0-2.2h-7.3v-4.5
				l1.2,0.9h2l-0.8-2.2l-0.8-1h5.9l1.2,3.2h2.1L245.9,125.8z M253.4,125.1c-0.1-0.4-0.3-0.7-0.5-0.8c-0.2-0.2-0.4-0.3-0.7-0.3h-18.4
				v-4.4l1.3,1h6v-0.9l-0.7-1h5.9v2h7.1V125.1z M238,150.6h-4l1.5-8.8l-0.8-1.2h5.4L238,150.6z M247.4,140.7h5.2l-0.9,1.2l1.3,8.7
				H249L247.4,140.7z"/>
			<defs>
				<filter id="Adobe_OpacityMaskFilter_2_" filterUnits="userSpaceOnUse" x="266.5" y="110.8" width="51.8" height="44.3">
					<feColorMatrix  type="matrix" values="1 0 0 0 0  0 1 0 0 0  0 0 1 0 0  0 0 0 1 0"/>
				</filter>
			</defs>
			<mask maskUnits="userSpaceOnUse" x="266.5" y="110.8" width="51.8" height="44.3" id="i_4_">
				<path class="st13" d="M189.5,111.5h128.1V155H189.5V111.5z"/>
				<path d="M214.8,150.7h-8.2V146l1.3,0.9h3.6l2.9-4.6h-7.8v-3.5h1v-11.7l-0.6-1.3h16.3l1-2.5h-12.6l-0.6,1.8h-4.6l2.3-5.9
					l-0.8-1.1h5.6l-0.6,1.5h17.1l-2.3,6.2h2.5v13h1v3.5h-6.9l2,4.6h4.9v4.8c-0.1-0.4-0.3-0.7-0.6-0.8c-0.3-0.1-0.5-0.2-0.8-0.2h-7.2
					l-3.3-7.5L214.8,150.7z M205,128c-0.1-0.5-0.3-0.8-0.6-0.9c-0.3-0.1-0.5-0.2-0.8-0.2h-1.1v9.5l1.4-0.4l1.1-1.5v6.4l-2.5,0.7v9.1
					h-6.2l1-1.5V143l-2.5,0.7l-1.3,1.2V139l3.7-1v-11h-3.7v-4.7l1.2,0.9h2.5v-3.8l-0.7-1h5.9v4.9h2.5V128z M225.2,129.7h-3.8v9.2
					h3.8V129.7z M216.2,129.7h-3.5v9.2h3.5V129.7z"/>
				<path d="M270.6,123.4c-0.1-0.5-0.3-0.8-0.5-0.9c-0.2-0.1-0.4-0.2-0.7-0.2l-8.7,0.5l0,5.1h10.9v4.6c-0.2-0.4-0.3-0.7-0.6-0.9
					c-0.2-0.1-0.4-0.2-0.6-0.2h-1.5l0,19.7h-5.1v-19.7h-3.1v19.7h-6.2l1.1-1.5v-31l1.2,0.9l13.8-0.9V123.4z M245.9,125.8h5.9l-0.7,1
					l-0.9,2.2h3.8v4.6c-0.1-0.4-0.3-0.7-0.5-0.9c-0.2-0.1-0.4-0.2-0.7-0.2l-6.4,0.1v2.2h7v4.7c-0.1-0.5-0.3-0.8-0.5-0.9
					c-0.2-0.1-0.4-0.2-0.6-0.2h-5.8l0,12.8h-6.2l1-1.5l0-11.3h-6.9V134l1.2,0.9h5.6l0-2.2h-7.3v-4.5l1.2,0.9h2l-0.8-2.2l-0.8-1h5.9
					l1.2,3.2h2.1L245.9,125.8z M253.4,125.1c-0.1-0.4-0.3-0.7-0.5-0.8c-0.2-0.2-0.4-0.3-0.7-0.3h-18.4v-4.4l1.3,1h6v-0.9l-0.7-1h5.9
					v2h7.1V125.1z M238,150.6h-4l1.5-8.8l-0.8-1.2h5.4L238,150.6z M247.4,140.7h5.2l-0.9,1.2l1.3,8.7H249L247.4,140.7z"/>
				<path d="M311.8,124.5c-0.1-0.4-0.3-0.7-0.6-0.9c-0.3-0.1-0.6-0.2-0.8-0.2h-4.3l-1.2,2.8h6.9v16.1h-3.4V130h-9v11.7l2.9-7.7
					l-0.7-1h5.9l-7,18.3h-4.7l3.3-8.9h-3.2v-15l-0.7-1.1h5.2l1.2-2.8h-5.7v-4.7l1.3,0.9h14.8V124.5z M287.5,126.4h6.1l-1,1l-0.6,2.4
					h1.9v4.3c-0.1-0.5-0.3-0.8-0.6-0.9c-0.3-0.1-0.6-0.2-0.8-0.2H279v18.1h-4.8l1.2-2.5v-19.8l1.3,0.9h0.6l-0.6-2.4l-1-1h6.1
					l0.8,3.4h4.1L287.5,126.4z M294.8,125.9c-0.1-0.5-0.4-0.8-0.7-0.9c-0.3-0.1-0.6-0.2-0.8-0.2h-19.2v-4.2l1.3,0.9h6.5v-1.9l-0.7-1
					h6.1v2.9h7.5V125.9z M293.7,149.6c-0.1-0.4-0.3-0.7-0.6-0.8c-0.3-0.1-0.6-0.1-0.8-0.1l-12.4,1.5V146l1.3,0.8l12.5-1.5V149.6z
					 M293.7,138.9c-0.1-0.4-0.3-0.7-0.6-0.8c-0.3-0.1-0.6-0.1-0.8-0.1l-12.4,1.5v-4.2l1.3,0.8l12.5-1.5V138.9z M293.7,144.2
					c-0.1-0.4-0.3-0.7-0.6-0.8c-0.3-0.1-0.6-0.2-0.8-0.2l-12.4,1.5v-4.1l1.3,0.7l12.5-1.5V144.2z M307.1,151.1l-3.6-7.4h5.9
					l-0.7,1.1l3.1,6.3H307.1z"/>
			</mask>
			<path class="st14" d="M311.8,124.5c-0.1-0.4-0.3-0.7-0.6-0.9c-0.3-0.1-0.6-0.2-0.8-0.2h-4.3l-1.2,2.8h6.9v16.1h-3.4V130h-9v11.7
				l2.9-7.7l-0.7-1h5.9l-7,18.3h-4.7l3.3-8.9h-3.2v-15l-0.7-1.1h5.2l1.2-2.8h-5.7v-4.7l1.3,0.9h14.8V124.5z M287.5,126.4h6.1l-1,1
				l-0.6,2.4h1.9v4.3c-0.1-0.5-0.3-0.8-0.6-0.9c-0.3-0.1-0.6-0.2-0.8-0.2H279v18.1h-4.8l1.2-2.5v-19.8l1.3,0.9h0.6l-0.6-2.4l-1-1
				h6.1l0.8,3.4h4.1L287.5,126.4z M294.8,125.9c-0.1-0.5-0.4-0.8-0.7-0.9c-0.3-0.1-0.6-0.2-0.8-0.2h-19.2v-4.2l1.3,0.9h6.5v-1.9
				l-0.7-1h6.1v2.9h7.5V125.9z M293.7,149.6c-0.1-0.4-0.3-0.7-0.6-0.8c-0.3-0.1-0.6-0.1-0.8-0.1l-12.4,1.5V146l1.3,0.8l12.5-1.5
				V149.6z M293.7,138.9c-0.1-0.4-0.3-0.7-0.6-0.8c-0.3-0.1-0.6-0.1-0.8-0.1l-12.4,1.5v-4.2l1.3,0.8l12.5-1.5V138.9z M293.7,144.2
				c-0.1-0.4-0.3-0.7-0.6-0.8c-0.3-0.1-0.6-0.2-0.8-0.2l-12.4,1.5v-4.1l1.3,0.7l12.5-1.5V144.2z M307.1,151.1l-3.6-7.4h5.9l-0.7,1.1
				l3.1,6.3H307.1z"/>
			
				<radialGradient id="SVGID_7_" cx="-109.5049" cy="826.8144" r="0.7248" gradientTransform="matrix(144.5003 47.9999 161.828 -487.1712 -117904.3984 408173.9062)" gradientUnits="userSpaceOnUse">
				<stop  offset="0" style="stop-color:#FFE9B0"/>
				<stop  offset="1" style="stop-color:#FFB979"/>
			</radialGradient>
			<path class="st15" d="M82.5,123.7H78v15.1l3.8-0.8l1.2-1.6v5.6l-8.8,1.6l-1.3,1.2v-23.9l-0.7-1.1h7.3l0.9-1.6l-0.9-0.7h6.5
				l-1.6,2.7h13.8v23.5H94c-0.2,0-0.5,0.1-0.8,0.2c-0.3,0.2-0.5,0.5-0.6,0.9v-5h0.8V124h-3.8v23.3h9v4.9c-0.1-0.4-0.3-0.7-0.6-0.8
				c-0.3-0.2-0.6-0.2-0.8-0.2H64l1-1.6v-15.9h-3.9v-4.9l1.3,1h7.7v17.5h14.3v-25.9l-0.3-0.6L82.5,123.7z M72,127.5h-5.1l-2.8-7
				l-0.7-1.1H69L72,127.5z"/>
			
				<radialGradient id="SVGID_8_" cx="-109.5049" cy="826.8144" r="0.7248" gradientTransform="matrix(144.5003 47.9999 161.828 -487.1712 -117904.3984 408173.9062)" gradientUnits="userSpaceOnUse">
				<stop  offset="0" style="stop-color:#FFE9B0"/>
				<stop  offset="1" style="stop-color:#FFB979"/>
			</radialGradient>
			<path class="st16" d="M138.2,118.2v33.4h-36.3v-32.1l-0.6-1.3H138.2z M133.1,122.1H107V148h26.1V122.1z M132.1,147.6
				c-0.1-0.5-0.3-0.8-0.6-0.9c-0.3-0.2-0.6-0.2-0.8-0.2h-22.5v-4.9l1.2,1h7.9V137h-9.2v-4.8l1.2,1h7.9v-5.4h-9.2v-4.8l1.2,1h22.7v5
				c-0.1-0.5-0.3-0.8-0.6-0.9c-0.3-0.2-0.6-0.2-0.8-0.2h-8.3v5.4h9.7v5c-0.1-0.5-0.3-0.8-0.6-0.9c-0.3-0.2-0.6-0.2-0.8-0.2h-8.3v5.6
				h4l-2.4-4.1h6.2l-0.7,1.4l1.7,2.7h0.9V147.6z"/>
			
				<radialGradient id="SVGID_9_" cx="-109.5049" cy="826.8144" r="0.7248" gradientTransform="matrix(144.5003 47.9999 161.828 -487.1712 -117904.3984 408173.9062)" gradientUnits="userSpaceOnUse">
				<stop  offset="0" style="stop-color:#FFE9B0"/>
				<stop  offset="1" style="stop-color:#FFB979"/>
			</radialGradient>
			<path class="st17" d="M145.8,151.7H141l3-28.2l-0.7-1.2H159v-3l-0.7-1.1h5.8v4.1h14.2v5c-0.1-0.5-0.3-0.7-0.6-0.8
				c-0.3-0.2-0.5-0.2-0.8-0.2h-28.3L145.8,151.7z M178.3,137.7c-0.1-0.5-0.3-0.8-0.6-0.9c-0.3-0.2-0.6-0.2-0.8-0.2h-11.4l-6.5,15.1
				h-10.2v-4.9l1.3,1h5l4.8-11.2h-10.5v-4.8l1.2,1h10.1v-3.5l-0.7-1.1h5.8v4.5h12.5L178.3,137.7z M164.2,140h6.2l-0.7,1.1l3.2,6.6
				h4.3l1.3-1v4.9h-8.9L164.2,140z"/>
			<defs>
				<filter id="Adobe_OpacityMaskFilter_3_" filterUnits="userSpaceOnUse" x="55.9" y="112.8" width="46.7" height="42.4">
					<feColorMatrix  type="matrix" values="1 0 0 0 0  0 1 0 0 0  0 0 1 0 0  0 0 0 1 0"/>
				</filter>
			</defs>
			<mask maskUnits="userSpaceOnUse" x="55.9" y="112.8" width="46.7" height="42.4" id="j_6_">
				<path class="st18" d="M57.5,114.6h123.9v40.6H57.5V114.6z"/>
				<path d="M82.5,123.7H78v15.1l3.8-0.8l1.2-1.6v5.6l-8.8,1.6l-1.3,1.2v-23.9l-0.7-1.1h7.3l0.9-1.6l-0.9-0.7h6.5l-1.6,2.7h13.8
					v23.5H94c-0.2,0-0.5,0.1-0.8,0.2c-0.3,0.2-0.5,0.5-0.6,0.9v-5h0.8V124h-3.8v23.3h9v4.9c-0.1-0.4-0.3-0.7-0.6-0.8
					c-0.3-0.2-0.6-0.2-0.8-0.2H64l1-1.6v-15.9h-3.9v-4.9l1.3,1h7.7v17.5h14.3v-25.9l-0.3-0.6L82.5,123.7z M72,127.5h-5.1l-2.8-7
					l-0.7-1.1H69L72,127.5z"/>
				<path d="M138.2,118.2v33.4h-36.3v-32.1l-0.6-1.3H138.2z M133.1,122.1H107V148h26.1V122.1z M132.1,147.6
					c-0.1-0.5-0.3-0.8-0.6-0.9c-0.3-0.2-0.6-0.2-0.8-0.2h-22.5v-4.9l1.2,1h7.9V137h-9.2v-4.8l1.2,1h7.9v-5.4h-9.2v-4.8l1.2,1h22.7v5
					c-0.1-0.5-0.3-0.8-0.6-0.9c-0.3-0.2-0.6-0.2-0.8-0.2h-8.3v5.4h9.7v5c-0.1-0.5-0.3-0.8-0.6-0.9c-0.3-0.2-0.6-0.2-0.8-0.2h-8.3
					v5.6h4l-2.4-4.1h6.2l-0.7,1.4l1.7,2.7h0.9V147.6z"/>
				<path d="M145.8,151.7H141l3-28.2l-0.7-1.2H159v-3l-0.7-1.1h5.8v4.1h14.2v5c-0.1-0.5-0.3-0.7-0.6-0.8c-0.3-0.2-0.5-0.2-0.8-0.2
					h-28.3L145.8,151.7z M178.3,137.7c-0.1-0.5-0.3-0.8-0.6-0.9c-0.3-0.2-0.6-0.2-0.8-0.2h-11.4l-6.5,15.1h-10.2v-4.9l1.3,1h5
					l4.8-11.2h-10.5v-4.8l1.2,1h10.1v-3.5l-0.7-1.1h5.8v4.5h12.5L178.3,137.7z M164.2,140h6.2l-0.7,1.1l3.2,6.6h4.3l1.3-1v4.9h-8.9
					L164.2,140z"/>
			</mask>
			<path class="st19" d="M82.5,123.7H78v15.1l3.8-0.8l1.2-1.6v5.6l-8.8,1.6l-1.3,1.2v-23.9l-0.7-1.1h7.3l0.9-1.6l-0.9-0.7h6.5
				l-1.6,2.7h13.8v23.5H94c-0.2,0-0.5,0.1-0.8,0.2c-0.3,0.2-0.5,0.5-0.6,0.9v-5h0.8V124h-3.8v23.3h9v4.9c-0.1-0.4-0.3-0.7-0.6-0.8
				c-0.3-0.2-0.6-0.2-0.8-0.2H64l1-1.6v-15.9h-3.9v-4.9l1.3,1h7.7v17.5h14.3v-25.9l-0.3-0.6L82.5,123.7z M72,127.5h-5.1l-2.8-7
				l-0.7-1.1H69L72,127.5z"/>
			<defs>
				<filter id="Adobe_OpacityMaskFilter_4_" filterUnits="userSpaceOnUse" x="95.3" y="114.2" width="46.9" height="41.4">
					<feColorMatrix  type="matrix" values="1 0 0 0 0  0 1 0 0 0  0 0 1 0 0  0 0 0 1 0"/>
				</filter>
			</defs>
			<mask maskUnits="userSpaceOnUse" x="95.3" y="114.2" width="46.9" height="41.4" id="j_5_">
				<path class="st20" d="M57.5,114.6h123.9v40.6H57.5V114.6z"/>
				<path d="M82.5,123.7H78v15.1l3.8-0.8l1.2-1.6v5.6l-8.8,1.6l-1.3,1.2v-23.9l-0.7-1.1h7.3l0.9-1.6l-0.9-0.7h6.5l-1.6,2.7h13.8
					v23.5H94c-0.2,0-0.5,0.1-0.8,0.2c-0.3,0.2-0.5,0.5-0.6,0.9v-5h0.8V124h-3.8v23.3h9v4.9c-0.1-0.4-0.3-0.7-0.6-0.8
					c-0.3-0.2-0.6-0.2-0.8-0.2H64l1-1.6v-15.9h-3.9v-4.9l1.3,1h7.7v17.5h14.3v-25.9l-0.3-0.6L82.5,123.7z M72,127.5h-5.1l-2.8-7
					l-0.7-1.1H69L72,127.5z"/>
				<path d="M138.2,118.2v33.4h-36.3v-32.1l-0.6-1.3H138.2z M133.1,122.1H107V148h26.1V122.1z M132.1,147.6
					c-0.1-0.5-0.3-0.8-0.6-0.9c-0.3-0.2-0.6-0.2-0.8-0.2h-22.5v-4.9l1.2,1h7.9V137h-9.2v-4.8l1.2,1h7.9v-5.4h-9.2v-4.8l1.2,1h22.7v5
					c-0.1-0.5-0.3-0.8-0.6-0.9c-0.3-0.2-0.6-0.2-0.8-0.2h-8.3v5.4h9.7v5c-0.1-0.5-0.3-0.8-0.6-0.9c-0.3-0.2-0.6-0.2-0.8-0.2h-8.3
					v5.6h4l-2.4-4.1h6.2l-0.7,1.4l1.7,2.7h0.9V147.6z"/>
				<path d="M145.8,151.7H141l3-28.2l-0.7-1.2H159v-3l-0.7-1.1h5.8v4.1h14.2v5c-0.1-0.5-0.3-0.7-0.6-0.8c-0.3-0.2-0.5-0.2-0.8-0.2
					h-28.3L145.8,151.7z M178.3,137.7c-0.1-0.5-0.3-0.8-0.6-0.9c-0.3-0.2-0.6-0.2-0.8-0.2h-11.4l-6.5,15.1h-10.2v-4.9l1.3,1h5
					l4.8-11.2h-10.5v-4.8l1.2,1h10.1v-3.5l-0.7-1.1h5.8v4.5h12.5L178.3,137.7z M164.2,140h6.2l-0.7,1.1l3.2,6.6h4.3l1.3-1v4.9h-8.9
					L164.2,140z"/>
			</mask>
			<path class="st21" d="M138.2,118.2v33.4h-36.3v-32.1l-0.6-1.3H138.2z M133.1,122.1H107V148h26.1V122.1z M132.1,147.6
				c-0.1-0.5-0.3-0.8-0.6-0.9c-0.3-0.2-0.6-0.2-0.8-0.2h-22.5v-4.9l1.2,1h7.9V137h-9.2v-4.8l1.2,1h7.9v-5.4h-9.2v-4.8l1.2,1h22.7v5
				c-0.1-0.5-0.3-0.8-0.6-0.9c-0.3-0.2-0.6-0.2-0.8-0.2h-8.3v5.4h9.7v5c-0.1-0.5-0.3-0.8-0.6-0.9c-0.3-0.2-0.6-0.2-0.8-0.2h-8.3v5.6
				h4l-2.4-4.1h6.2l-0.7,1.4l1.7,2.7h0.9V147.6z"/>
			<defs>
				<filter id="Adobe_OpacityMaskFilter_5_" filterUnits="userSpaceOnUse" x="136.2" y="114.1" width="46.2" height="41.5">
					<feColorMatrix  type="matrix" values="1 0 0 0 0  0 1 0 0 0  0 0 1 0 0  0 0 0 1 0"/>
				</filter>
			</defs>
			<mask maskUnits="userSpaceOnUse" x="136.2" y="114.1" width="46.2" height="41.5" id="j_4_">
				<path class="st22" d="M57.5,114.6h123.9v40.6H57.5V114.6z"/>
				<path d="M82.5,123.7H78v15.1l3.8-0.8l1.2-1.6v5.6l-8.8,1.6l-1.3,1.2v-23.9l-0.7-1.1h7.3l0.9-1.6l-0.9-0.7h6.5l-1.6,2.7h13.8
					v23.5H94c-0.2,0-0.5,0.1-0.8,0.2c-0.3,0.2-0.5,0.5-0.6,0.9v-5h0.8V124h-3.8v23.3h9v4.9c-0.1-0.4-0.3-0.7-0.6-0.8
					c-0.3-0.2-0.6-0.2-0.8-0.2H64l1-1.6v-15.9h-3.9v-4.9l1.3,1h7.7v17.5h14.3v-25.9l-0.3-0.6L82.5,123.7z M72,127.5h-5.1l-2.8-7
					l-0.7-1.1H69L72,127.5z"/>
				<path d="M138.2,118.2v33.4h-36.3v-32.1l-0.6-1.3H138.2z M133.1,122.1H107V148h26.1V122.1z M132.1,147.6
					c-0.1-0.5-0.3-0.8-0.6-0.9c-0.3-0.2-0.6-0.2-0.8-0.2h-22.5v-4.9l1.2,1h7.9V137h-9.2v-4.8l1.2,1h7.9v-5.4h-9.2v-4.8l1.2,1h22.7v5
					c-0.1-0.5-0.3-0.8-0.6-0.9c-0.3-0.2-0.6-0.2-0.8-0.2h-8.3v5.4h9.7v5c-0.1-0.5-0.3-0.8-0.6-0.9c-0.3-0.2-0.6-0.2-0.8-0.2h-8.3
					v5.6h4l-2.4-4.1h6.2l-0.7,1.4l1.7,2.7h0.9V147.6z"/>
				<path d="M145.8,151.7H141l3-28.2l-0.7-1.2H159v-3l-0.7-1.1h5.8v4.1h14.2v5c-0.1-0.5-0.3-0.7-0.6-0.8c-0.3-0.2-0.5-0.2-0.8-0.2
					h-28.3L145.8,151.7z M178.3,137.7c-0.1-0.5-0.3-0.8-0.6-0.9c-0.3-0.2-0.6-0.2-0.8-0.2h-11.4l-6.5,15.1h-10.2v-4.9l1.3,1h5
					l4.8-11.2h-10.5v-4.8l1.2,1h10.1v-3.5l-0.7-1.1h5.8v4.5h12.5L178.3,137.7z M164.2,140h6.2l-0.7,1.1l3.2,6.6h4.3l1.3-1v4.9h-8.9
					L164.2,140z"/>
			</mask>
			<path class="st23" d="M145.8,151.7H141l3-28.2l-0.7-1.2H159v-3l-0.7-1.1h5.8v4.1h14.2v5c-0.1-0.5-0.3-0.7-0.6-0.8
				c-0.3-0.2-0.5-0.2-0.8-0.2h-28.3L145.8,151.7z M178.3,137.7c-0.1-0.5-0.3-0.8-0.6-0.9c-0.3-0.2-0.6-0.2-0.8-0.2h-11.4l-6.5,15.1
				h-10.2v-4.9l1.3,1h5l4.8-11.2h-10.5v-4.8l1.2,1h10.1v-3.5l-0.7-1.1h5.8v4.5h12.5L178.3,137.7z M164.2,140h6.2l-0.7,1.1l3.2,6.6
				h4.3l1.3-1v4.9h-8.9L164.2,140z"/>
		</g>
		<g>
			
				<linearGradient id="SVGID_10_" gradientUnits="userSpaceOnUse" x1="42.6546" y1="723.6249" x2="42.6546" y2="614.9183" gradientTransform="matrix(1 0 0 -1 0 811.8898)">
				<stop  offset="0.3802" style="stop-color:#FFC895"/>
				<stop  offset="1" style="stop-color:#FF6355;stop-opacity:0"/>
			</linearGradient>
			<path class="st24" d="M37.2,98.4c-1.9,2.8-4.7,5-8.3,6.4c-1.5-3.7-0.8-7.9,1.4-11.2c1.2-1.6,2.5-3.1,4.3-3.9
				c1.7-0.9,3.6-1.5,5.5-1.5c0.1,2-0.2,3.9-0.7,5.5l0,0.1l0,0C38.8,95.5,38.2,97.1,37.2,98.4z M14.9,109.6
				c-1.6-3.6-1.7-8.6,0.5-13.2c3.5,1.7,5.9,5.1,7.2,8.6c0.7,1.8,1.2,3.7,1.3,5.6c0.1,1.9,0.2,3.9-0.3,5.8
				C19.8,115.7,16.6,113.3,14.9,109.6z M9,119.6c0-1.2,0-2.4,0.2-3.7c3.9,0.7,7.1,3.2,9.3,6.2c1.2,1.5,2.2,3.2,2.8,5l0.1,0.2
				c0.6,1.7,1.2,3.6,1.3,5.5c-3.9,0.4-7.6-1.1-10.3-4.1c-1.3-1.5-2.2-3.5-2.9-5.7C9.2,121.9,9,120.8,9,119.6L9,119.6z M29.2,147.7
				c3.7-1.4,6.5-4.1,8.3-6.8c1-1.4,1.7-2.8,2.1-4.2c0.4-1.4,0.7-2.8,0.4-4.2c-3.9,0.4-7.3,2.1-9.4,4.9
				C28.5,140.2,27.8,144.1,29.2,147.7z M11,143c-1.2-1.9-1.9-4.3-2.3-6.8c3.9-0.4,7.7,1.1,10.7,3.4c3.1,2.3,5.5,5.4,7,9.1
				c-3.7,1.5-7.6,1.1-11.1-1.1C13.7,146.5,12.3,145,11,143L11,143z M36.7,161.1c3.1-2.4,5-5.7,6.1-8.8c0.6-1.6,0.9-3.1,0.8-4.5
				c0.1-1.5-0.1-2.9-0.7-4.1c-3.6,1.5-6.4,4-7.7,7.3c-0.7,1.7-0.8,3.4-0.6,5.1C34.8,157.8,35.6,159.5,36.7,161.1z M13.9,155.8
				c1.1,2.3,2.4,4.3,4.1,5.9c1.7,1.5,3.6,2.6,5.5,3.2c3.9,1.2,7.9,0.3,10.9-2.1c-1.2-1.6-2.7-2.9-4.2-4.1c-1.5-1.2-3.4-2-5.1-2.7
				C21.6,154.7,17.5,154.3,13.9,155.8z M25.6,132.6c3.9-0.4,7.4-2.1,9.9-4.2c1.3-1,2.4-2.2,3.2-3.4c0.1-0.1,0.1-0.2,0.2-0.3l0,0
				c0.3-0.5,0.6-1,0.8-1.6c0.3-0.6,0.5-1.3,0.6-2c-3.9-0.7-7.6,0-10.5,2.1c-1.4,1-2.4,2.4-3.2,4C25.7,128.8,25.6,130.6,25.6,132.6z
				 M26.5,117c3.9,0.7,7.7,0,10.7-1.3c3.1-1.3,5.4-3.1,6.6-5.7c-3.5-1.7-7.3-2.2-10.6-1c-1.6,0.6-3,1.6-4.2,3
				C27.6,113.5,27,115.2,26.5,117z M57.5,196.1c1.2,0.4,2.4,0.7,3.6,0.8c1.2,0.1,2.4,0.1,3.5,0c1.1-0.1,2.2-0.3,3.2-0.6
				c1-0.4,2-0.8,2.8-1.4c1.7-1.1,3.1-2.4,4-4c1-1.6,1.5-3.5,1.6-5.5c-2-0.1-3.9-0.1-5.8,0.4c-1.9,0.5-3.7,1-5.4,2
				c-0.8,0.5-1.7,1-2.4,1.6c-0.8,0.6-1.5,1.2-2.1,1.8C59.2,192.6,58.1,194.2,57.5,196.1z M75.9,176.9c0.5,1.7,0.7,3.6,0.6,5.6
				c-1.9-0.1-3.7-0.9-5.2-1.7c-1.5-0.9-2.7-2.4-3.5-3.9c-0.4-0.8-0.7-1.6-0.9-2.4c-0.2-0.9-0.3-1.8-0.4-2.7
				c-0.1-1.8,0.3-3.7,0.9-5.6c0.5,0.2,1,0.4,1.4,0.7c0.2,0.1,0.3,0.2,0.5,0.2c0.6,0.3,1.2,0.7,1.7,1.2c0.5,0.5,1,1.1,1.5,1.7
				c0.5,0.6,0.9,1.2,1.4,1.9C74.7,173.5,75.4,175.1,75.9,176.9L75.9,176.9z M39.4,187.1c2,1.5,4.4,2.3,6.6,2.8
				c2.2,0.5,4.4,0.3,6.4-0.2c3.9-1,6.8-3.9,8.1-7.6c-3.8-1.4-7.7-1.5-11.5-0.8C45.3,182.1,41.7,183.8,39.4,187.1L39.4,187.1z
				 M61.9,168.5c0.8,3.3,0.9,7-0.4,10.7c-3.6-1.3-6.1-4.3-6.8-7.8c-0.8-3.3,0.3-7.1,2.6-10.3l0.1,0.1c1.1,0.9,2.1,1.7,2.8,3
				C60.9,165.6,61.5,166.9,61.9,168.5L61.9,168.5z M24.4,173.3c1.6,1.9,3.6,3.4,5.5,4.5c2,1,4.2,1.5,6.2,1.5c2,0.1,3.9-0.4,5.6-1.3
				c1.7-0.9,3.1-2.1,4.3-3.7c-1.7-1.1-3.3-2.1-5.2-2.8c-0.9-0.3-1.8-0.6-2.8-0.7c-0.9-0.2-1.8-0.4-2.8-0.5
				C31.5,170,27.5,170.8,24.4,173.3z M50.3,166.9c-0.5,1.7-1.3,3.5-2.5,5c-1.6-1.1-2.7-2.6-3.4-4.3c-0.4-0.8-0.6-1.6-0.8-2.5
				c-0.1-0.9-0.1-1.8-0.1-2.6c0.3-3.5,2.2-6.7,5.3-9.2c0.9,1.1,1.6,2.3,1.9,3.8c0.4,1.4,0.6,2.9,0.5,4.6
				C51.1,163.4,50.8,165.2,50.3,166.9z"/>
			
				<linearGradient id="SVGID_11_" gradientUnits="userSpaceOnUse" x1="320.9671" y1="720.6475" x2="320.9671" y2="611.9409" gradientTransform="matrix(1 0 0 -1 0 811.8898)">
				<stop  offset="0.3802" style="stop-color:#FFC895"/>
				<stop  offset="1" style="stop-color:#FF6355;stop-opacity:0"/>
			</linearGradient>
			<path class="st25" d="M326.4,101.4c1.9,2.8,4.7,5,8.3,6.4c1.5-3.7,0.8-7.9-1.4-11.2c-1.2-1.6-2.5-3.1-4.3-3.9
				c-1.7-0.9-3.6-1.5-5.5-1.5c-0.1,2,0.2,3.9,0.7,5.5l0,0.1v0C324.8,98.4,325.4,100.1,326.4,101.4L326.4,101.4z M348.7,112.6
				c1.6-3.6,1.7-8.6-0.5-13.2c-3.5,1.7-5.9,5.1-7.2,8.6c-0.7,1.8-1.2,3.7-1.3,5.6c-0.1,1.9-0.2,3.9,0.3,5.8
				C343.9,118.7,347,116.3,348.7,112.6L348.7,112.6z M354.6,122.6c0-1.2,0-2.4-0.2-3.7c-3.9,0.7-7.1,3.2-9.3,6.2
				c-1.2,1.5-2.2,3.2-2.8,5l-0.1,0.2c-0.6,1.7-1.2,3.6-1.3,5.5c3.9,0.4,7.6-1.1,10.3-4.1c1.3-1.5,2.2-3.5,2.9-5.7
				C354.4,124.9,354.6,123.7,354.6,122.6L354.6,122.6z M334.4,150.7c-3.7-1.4-6.5-4.1-8.3-6.8c-1-1.4-1.7-2.8-2.1-4.2
				c-0.4-1.4-0.7-2.8-0.4-4.2c3.9,0.4,7.3,2.1,9.4,4.9C335.1,143.2,335.9,147.1,334.4,150.7L334.4,150.7z M352.6,146
				c1.2-1.9,1.9-4.3,2.3-6.8c-3.9-0.4-7.7,1.1-10.7,3.4c-3.1,2.3-5.5,5.4-7,9.1c3.7,1.5,7.6,1.1,11.1-1.1
				C349.9,149.5,351.4,147.9,352.6,146L352.6,146z M326.9,164c-3.1-2.4-5-5.7-6.1-8.8c-0.6-1.6-0.9-3.1-0.8-4.5
				c-0.1-1.5,0.1-2.9,0.7-4.1c3.6,1.5,6.4,4,7.7,7.3c0.7,1.7,0.8,3.4,0.6,5.1C328.8,160.8,328.1,162.5,326.9,164z M349.7,158.8
				c-1.1,2.3-2.4,4.3-4.1,5.9c-1.7,1.5-3.6,2.6-5.5,3.2c-3.9,1.2-7.9,0.3-10.9-2.1c1.2-1.6,2.7-2.9,4.2-4.1c1.5-1.2,3.4-2,5.1-2.7
				C342,157.6,346.1,157.2,349.7,158.8z M338,135.5c-3.9-0.4-7.4-2.1-9.9-4.2c-1.3-1-2.4-2.2-3.2-3.4c-0.1-0.1-0.1-0.2-0.2-0.3l0,0
				c-0.3-0.5-0.6-1-0.8-1.6c-0.3-0.6-0.5-1.3-0.6-2c3.9-0.7,7.6,0,10.5,2.1c1.4,1,2.4,2.4,3.2,4C337.9,131.8,338,133.6,338,135.5
				L338,135.5z M337.1,120c-3.9,0.7-7.7,0-10.7-1.3c-3.1-1.3-5.4-3.1-6.6-5.7c3.5-1.7,7.3-2.2,10.6-1c1.6,0.6,3,1.6,4.2,3
				C336,116.4,336.7,118.2,337.1,120z M306.1,199c-1.2,0.4-2.4,0.7-3.6,0.8c-1.2,0.1-2.4,0.1-3.5,0c-1.1-0.1-2.2-0.3-3.2-0.6
				c-1-0.4-2-0.8-2.8-1.4c-1.7-1.1-3.1-2.4-4-4c-1-1.6-1.5-3.5-1.6-5.5c2-0.1,3.9-0.1,5.8,0.4c1.9,0.5,3.7,1,5.4,2
				c0.8,0.5,1.7,1,2.4,1.6c0.8,0.6,1.5,1.2,2.1,1.8C304.4,195.6,305.5,197.2,306.1,199L306.1,199z M287.7,179.9
				c-0.5,1.7-0.7,3.6-0.6,5.6c1.9-0.1,3.7-0.9,5.2-1.7c1.5-0.9,2.7-2.4,3.5-3.9c0.4-0.8,0.7-1.6,0.9-2.4c0.2-0.9,0.3-1.8,0.4-2.7
				c0.1-1.8-0.3-3.7-0.9-5.6c-0.5,0.2-1,0.4-1.4,0.7c-0.2,0.1-0.3,0.2-0.5,0.2c-0.6,0.3-1.2,0.7-1.7,1.2c-0.5,0.5-1,1.1-1.5,1.7
				c-0.5,0.6-0.9,1.2-1.4,1.9C288.9,176.4,288.2,178.1,287.7,179.9L287.7,179.9z M324.2,190c-2,1.5-4.4,2.3-6.6,2.8
				c-2.2,0.5-4.4,0.3-6.4-0.2c-3.9-1-6.8-3.9-8.1-7.6c3.8-1.4,7.7-1.5,11.5-0.8C318.4,185.1,321.9,186.8,324.2,190L324.2,190z
				 M301.7,171.5c-0.8,3.3-0.9,7,0.4,10.7c3.6-1.3,6.1-4.3,6.8-7.8c0.8-3.3-0.3-7.1-2.6-10.3l-0.1,0.1c-1.1,0.9-2.1,1.7-2.8,3
				C302.8,168.6,302.1,169.9,301.7,171.5L301.7,171.5z M339.2,176.3c-1.6,1.9-3.6,3.4-5.5,4.5c-2,1-4.2,1.5-6.2,1.5
				c-2,0.1-3.9-0.4-5.6-1.3c-1.7-0.9-3.1-2.1-4.3-3.7c1.7-1.1,3.3-2.1,5.2-2.8c0.9-0.3,1.8-0.6,2.8-0.7c0.9-0.2,1.8-0.4,2.8-0.5
				C332.1,173,336.2,173.8,339.2,176.3z M313.3,169.9c0.5,1.7,1.3,3.5,2.5,5c1.6-1.1,2.7-2.6,3.4-4.3c0.4-0.8,0.6-1.6,0.8-2.5
				c0.1-0.9,0.1-1.8,0.1-2.6c-0.3-3.5-2.2-6.7-5.3-9.2c-0.9,1.1-1.6,2.3-1.9,3.8c-0.4,1.4-0.6,2.9-0.5,4.6
				C312.5,166.4,312.8,168.2,313.3,169.9L313.3,169.9z"/>
			<path class="st26" d="M38,97.6c-2,0.3-9.9-9.7-13.6-14.8c-1-1.4-1.6,2.8-1.7,5.1c-0.7-1.7-2-3.6-1.7,2.1
				c0.3,5.8,8.1,12.9,11.9,15.7h-5.1c3.4,12.2,8.4,12.2,18.6,9.3l-2.1-3.8c13-0.5,18-2.4,21.6-9.7c-15.7,1.7-20.5-0.8-21.2-2.5
				c-0.4-1-0.8-3-0.4-3.4c0.4-0.4,2.1,0,2.1,0c0-0.8-0.4-2.6-2.1-3C42.2,92.1,40.5,97.2,38,97.6z"/>
			<path class="st26" d="M349.1,106.5c2.1,3,7.2,7.6,11.5,7.8c1.2-1.4,0.3-5.6,0-11.1c5.4,1.7,4.6,11,4.6,11s0.6,0.2,1.3-0.4
				c0.3-0.3,0.8-0.7,1.7-0.8c0.8-0.1,2.2,0.2,2.5,0.8c0.1,0.1-0.2,0.5-0.6,1c-1.2,1.4-2.3,2.2-4.9,4.6c-0.2,0.2-0.7,0.6-1.1,1.1
				c-0.8,1.3-1.4,2.7-1.4,4l-1.3-1.5c-1.7,1.5-5.9,3.2-5.9,3.2l2.1-2.5l1.6-3c-2.6,0-8-1.1-9.7-3.4
				C346.8,113.3,347.8,107.3,349.1,106.5z"/>
		</g>
	</g>
</g>
</svg>
